<svg width="21" height="21" viewBox="0 0 21 21" fill="none" xmlns="http://www.w3.org/2000/svg">
<path d="M10.1443 19.7967H4.66701C3.17847 19.7967 1.97071 18.5845 1.97071 17.1004V3.89962C1.97071 2.41108 3.18293 1.20331 4.66701 1.20331H10.2334C10.5677 1.20331 10.8351 0.935908 10.8351 0.601655C10.8351 0.267402 10.5677 0 10.2334 0H4.66701C2.51442 0 0.767395 1.75149 0.767395 3.89962V17.1004C0.767395 19.253 2.51888 21 4.66701 21H10.1443C10.4786 21 10.746 20.7326 10.746 20.3983C10.746 20.0641 10.4741 19.7967 10.1443 19.7967Z" fill="#535353"/>
<path d="M20.056 10.0767L16.2321 6.25284C15.9959 6.01663 15.6171 6.01663 15.3809 6.25284C15.1447 6.48904 15.1447 6.86786 15.3809 7.10407L18.1797 9.90289H5.97281C5.63856 9.90289 5.37115 10.1703 5.37115 10.5045C5.37115 10.8388 5.63856 11.1062 5.97281 11.1062H18.1797L15.3809 13.905C15.1447 14.1412 15.1447 14.52 15.3809 14.7562C15.4968 14.8721 15.6528 14.9345 15.8043 14.9345C15.9558 14.9345 16.1118 14.8766 16.2277 14.7562L20.0515 10.9324C20.2922 10.6917 20.2922 10.3084 20.056 10.0767Z" fill="#535353"/>
</svg>
